<?xml version="1.0" encoding="UTF-8"?>
<!DOCTYPE svg PUBLIC "-//W3C//DTD SVG 1.1//EN" "http://www.w3.org/Graphics/SVG/1.1/DTD/svg11.dtd">
<svg version="1.1" id="Layer_1" xmlns="http://www.w3.org/2000/svg" xmlns:xlink="http://www.w3.org/1999/xlink" x="0px" y="0px" width="32px" height="32px" viewBox="0 0 32 32" enable-background="new 0 0 32 32" xml:space="preserve">
  <g id="main">
    <g id="icon">
      <path d="M14.37,1.08L13.82,1.312L13.33,1.699L12.93,2.241L0.3414,25.22L0.09121,25.86L0.01641,26.52L0.1016,27.15L0.3303,27.74L0.6869,28.24L1.155,28.64L1.72,28.91L2.365,29L21.24,29L22.64,26.5L22.15,26.04L21.71,25.53L21.33,24.98L21.01,24.38L20.75,23.75L20.56,23.09L20.44,22.4L20.4,21.68L20.43,21.04L20.53,20.42L20.68,19.81L20.9,19.23L21.16,18.68L21.48,18.17L21.84,17.68L22.25,17.23L22.7,16.83L23.18,16.46L23.7,16.15L24.25,15.88L24.42,15.82L16.98,2.243L16.58,1.701L16.09,1.313L15.54,1.08L14.96,1.003zM16.6,9L16.76,9.032L16.88,9.118L16.97,9.245L17,9.4L17,19.6L16.97,19.76L16.88,19.88L16.76,19.97L16.6,20L13.4,20L13.24,19.97L13.12,19.88L13.03,19.76L13,19.6L13,9.4L13.03,9.245L13.12,9.118L13.24,9.032L13.4,9zM16.6,22L16.76,22.03L16.88,22.12L16.97,22.24L17,22.4L17,24.6L16.97,24.76L16.88,24.88L16.76,24.97L16.6,25L13.4,25L13.24,24.97L13.12,24.88L13.03,24.76L13,24.6L13,22.4L13.03,22.24L13.12,22.12L13.24,22.03L13.4,22zz" fill="#EAB765"/>
      <path d="M13.24,9.032L13.12,9.118L13.03,9.245L13,9.4L13,19.6L13.03,19.76L13.12,19.88L13.24,19.97L13.4,20L16.6,20L16.76,19.97L16.88,19.88L16.97,19.76L17,19.6L17,9.4L16.97,9.245L16.88,9.118L16.76,9.032L16.6,9L13.4,9zM13.24,22.03L13.12,22.12L13.03,22.24L13,22.4L13,24.6L13.03,24.76L13.12,24.88L13.24,24.97L13.4,25L16.6,25L16.76,24.97L16.88,24.88L16.97,24.76L17,24.6L17,22.4L16.97,22.24L16.88,22.12L16.76,22.03L16.6,22L13.4,22zz" fill="#58595B"/>
    </g>
    <g id="overlay">
      <path d="M26.7002,16.385c2.927,0,5.2998,2.3728,5.2998,5.2998s-2.3728,5.2998,-5.2998,5.2998c-2.927,0,-5.2998,-2.3728,-5.2998,-5.2998S23.7732,16.385,26.7002,16.385zM29.904,27.0209c-0.8316,0.5028,-1.792,0.8136,-2.82,0.8726l1.09,3.8807c0.0635,0.226,0.3457,0.3017,0.5138,0.1378l1.1628,-1.1339l1.624,-0.0192c0.2347,-0.0028,0.3809,-0.2557,0.2662,-0.4605L29.904,27.0209zM26.3145,27.8893l-1.0912,3.8849c-0.0635,0.226,-0.3457,0.3017,-0.5138,0.1378l-1.1628,-1.1339l-1.624,-0.0192c-0.2347,-0.0028,-0.3809,-0.2557,-0.2662,-0.4605l1.8512,-3.3032C24.3342,27.5038,25.29,27.8214,26.3145,27.8893z" fill="#CD4C32"/>
    </g>
  </g>
</svg>
