<?xml version="1.0" encoding="UTF-8"?>
<!DOCTYPE svg PUBLIC "-//W3C//DTD SVG 1.1//EN" "http://www.w3.org/Graphics/SVG/1.1/DTD/svg11.dtd">
<svg version="1.1" id="Layer_1" xmlns="http://www.w3.org/2000/svg" xmlns:xlink="http://www.w3.org/1999/xlink" x="0px" y="0px" width="32px" height="32px" viewBox="0 0 32 32" enable-background="new 0 0 32 32" xml:space="preserve">
  <g id="main">
    <clipPath id="clip_mask">
      <path d="M23.135,31.7732l-1.224,-0.0145c-0.4666,-0.0054,-0.8846,-0.2499,-1.1181,-0.6539c-0.2336,-0.4041,-0.2368,-0.8884,-0.0086,-1.2955l1.8557,-3.3112c-1.3688,-1.1565,-2.2396,-2.8852,-2.2396,-4.8133c0,-3.4737,2.8261,-6.2999,6.2999,-6.2999c2.2223,0,4.178,1.1577,5.2998,2.9006V0H0v32h23.3675L23.135,31.7732z"/>
    </clipPath>
    <g id="icon" clip-path="url(#clip_mask)">
      <g id="transformed_icon" transform="translate(-1 -1)">
        <path d="M30.5748,26.2199L17.9813,3.2429c-0.9058,-1.6523,-3.1406,-1.6541,-4.0464,-0.0018L1.3414,26.2208C0.4257,27.8915,1.553,30,3.3646,30h25.187C30.3633,30,31.4906,27.8906,30.5748,26.2199zM18,25.6c0,0.22,-0.18,0.4,-0.4,0.4h-3.2c-0.22,0,-0.4,-0.18,-0.4,-0.4v-2.2c0,-0.22,0.18,-0.4,0.4,-0.4h3.2c0.22,0,0.4,0.18,0.4,0.4V25.6zM18,20.6c0,0.22,-0.18,0.4,-0.4,0.4h-3.2c-0.22,0,-0.4,-0.18,-0.4,-0.4V10.4c0,-0.22,0.18,-0.4,0.4,-0.4h3.2c0.22,0,0.4,0.18,0.4,0.4V20.6z" fill="#EAB765"/>
        <path d="M17.6,21h-3.2c-0.22,0,-0.4,-0.18,-0.4,-0.4V10.4c0,-0.22,0.18,-0.4,0.4,-0.4h3.2c0.22,0,0.4,0.18,0.4,0.4v10.2C18,20.82,17.82,21,17.6,21zM18,25.6v-2.2c0,-0.22,-0.18,-0.4,-0.4,-0.4h-3.2c-0.22,0,-0.4,0.18,-0.4,0.4v2.2c0,0.22,0.18,0.4,0.4,0.4h3.2C17.82,26,18,25.82,18,25.6z" fill="#58595B"/>
      </g>
    </g>
    <g id="overlay">
      <path d="M26.7002,16.385c2.927,0,5.2998,2.3728,5.2998,5.2998s-2.3728,5.2998,-5.2998,5.2998c-2.927,0,-5.2998,-2.3728,-5.2998,-5.2998S23.7732,16.385,26.7002,16.385zM29.904,27.0209c-0.8316,0.5028,-1.792,0.8136,-2.82,0.8726l1.09,3.8807c0.0635,0.226,0.3457,0.3017,0.5138,0.1378l1.1628,-1.1339l1.624,-0.0192c0.2347,-0.0028,0.3809,-0.2557,0.2662,-0.4605L29.904,27.0209zM26.3145,27.8893l-1.0912,3.8849c-0.0635,0.226,-0.3457,0.3017,-0.5138,0.1378l-1.1628,-1.1339l-1.624,-0.0192c-0.2347,-0.0028,-0.3809,-0.2557,-0.2662,-0.4605l1.8512,-3.3032C24.3342,27.5038,25.29,27.8214,26.3145,27.8893z" fill="#CD4C32"/>
    </g>
  </g>
</svg>
